<svg width="43" height="32" viewBox="0 0 43 32" fill="none" xmlns="http://www.w3.org/2000/svg">
<path d="M0.868896 31.457V26.0471C0.868896 24.9522 1.14731 23.9459 1.70412 23.0281C2.26094 22.1104 3.00071 21.41 3.92344 20.9269C5.89617 19.9287 7.90071 19.18 9.93708 18.6808C11.9734 18.1817 14.0416 17.9321 16.1416 17.9321C18.2416 17.9321 20.3098 18.1817 22.3462 18.6808C24.3825 19.18 26.3871 19.9287 28.3598 20.9269C29.2825 21.41 30.0223 22.1104 30.5791 23.0281C31.1359 23.9459 31.4144 24.9522 31.4144 26.0471V31.457H0.868896ZM35.2325 31.457V25.6606C35.2325 24.2438 34.8428 22.8832 34.0632 21.579C33.2837 20.2748 32.178 19.1558 30.7462 18.2219C32.3689 18.4152 33.8962 18.7452 35.328 19.2122C36.7598 19.6791 38.0962 20.2507 39.3371 20.9269C40.4825 21.571 41.3575 22.2875 41.9621 23.0764C42.5666 23.8654 42.8689 24.7268 42.8689 25.6606V31.457H35.2325ZM16.1416 16C14.0416 16 12.2439 15.2432 10.7484 13.7297C9.25299 12.2162 8.50526 10.3968 8.50526 8.27146C8.50526 6.14612 9.25299 4.3267 10.7484 2.81319C12.2439 1.29969 14.0416 0.542938 16.1416 0.542938C18.2416 0.542938 20.0393 1.29969 21.5348 2.81319C23.0303 4.3267 23.778 6.14612 23.778 8.27146C23.778 10.3968 23.0303 12.2162 21.5348 13.7297C20.0393 15.2432 18.2416 16 16.1416 16ZM35.2325 8.27146C35.2325 10.3968 34.4848 12.2162 32.9894 13.7297C31.4939 15.2432 29.6962 16 27.5962 16C27.2462 16 26.8007 15.9597 26.2598 15.8792C25.7189 15.7987 25.2734 15.7102 24.9234 15.6136C25.7825 14.5831 26.4428 13.4399 26.9041 12.184C27.3655 10.9281 27.5962 9.62396 27.5962 8.27146C27.5962 6.91897 27.3655 5.61478 26.9041 4.3589C26.4428 3.10301 25.7825 1.95983 24.9234 0.929365C25.3689 0.768354 25.8144 0.663696 26.2598 0.615393C26.7053 0.56709 27.1507 0.542938 27.5962 0.542938C29.6962 0.542938 31.4939 1.29969 32.9894 2.81319C34.4848 4.3267 35.2325 6.14612 35.2325 8.27146ZM4.68708 27.5928H27.5962V26.0471C27.5962 25.6928 27.5087 25.3708 27.3337 25.081C27.1587 24.7912 26.928 24.5658 26.6416 24.4048C24.9234 23.5353 23.1894 22.8832 21.4394 22.4485C19.6894 22.0138 17.9234 21.7964 16.1416 21.7964C14.3598 21.7964 12.5939 22.0138 10.8439 22.4485C9.0939 22.8832 7.35981 23.5353 5.64162 24.4048C5.35526 24.5658 5.12458 24.7912 4.94958 25.081C4.77458 25.3708 4.68708 25.6928 4.68708 26.0471V27.5928ZM16.1416 12.1357C17.1916 12.1357 18.0905 11.7574 18.8382 11.0006C19.5859 10.2438 19.9598 9.33414 19.9598 8.27146C19.9598 7.20879 19.5859 6.29908 18.8382 5.54233C18.0905 4.78558 17.1916 4.4072 16.1416 4.4072C15.0916 4.4072 14.1928 4.78558 13.445 5.54233C12.6973 6.29908 12.3234 7.20879 12.3234 8.27146C12.3234 9.33414 12.6973 10.2438 13.445 11.0006C14.1928 11.7574 15.0916 12.1357 16.1416 12.1357Z" fill="white"/>
</svg>
