<svg width="24" height="24" viewBox="0 0 24 24" fill="none" xmlns="http://www.w3.org/2000/svg">
<mask id="mask0_3_132" style="mask-type:alpha" maskUnits="userSpaceOnUse" x="0" y="0" width="24" height="24">
<rect width="24" height="24" fill="#D9D9D9"/>
</mask>
<g mask="url(#mask0_3_132)">
<path d="M5.2 17.4H14.8V16.74C14.8 15.86 14.36 15.15 13.48 14.61C12.6 14.07 11.44 13.8 10 13.8C8.56 13.8 7.4 14.07 6.52 14.61C5.64 15.15 5.2 15.86 5.2 16.74V17.4ZM10 12.6C10.66 12.6 11.225 12.365 11.695 11.895C12.165 11.425 12.4 10.86 12.4 10.2C12.4 9.54 12.165 8.975 11.695 8.505C11.225 8.035 10.66 7.8 10 7.8C9.34 7.8 8.775 8.035 8.305 8.505C7.835 8.975 7.6 9.54 7.6 10.2C7.6 10.86 7.835 11.425 8.305 11.895C8.775 12.365 9.34 12.6 10 12.6ZM-2 27V5.4C-2 4.74 -1.765 4.175 -1.295 3.705C-0.825 3.235 -0.26 3 0.4 3H19.6C20.26 3 20.825 3.235 21.295 3.705C21.765 4.175 22 4.74 22 5.4V19.8C22 20.46 21.765 21.025 21.295 21.495C20.825 21.965 20.26 22.2 19.6 22.2H2.8L-2 27ZM1.78 19.8H19.6V5.4H0.4V21.15L1.78 19.8Z" fill="white"/>
</g>
</svg>
