<svg width="16" height="16" viewBox="0 0 16 16" fill="none" xmlns="http://www.w3.org/2000/svg">
<mask id="mask0_3_59" style="mask-type:alpha" maskUnits="userSpaceOnUse" x="0" y="0" width="16" height="16">
<rect width="16" height="16" fill="#D9D9D9"/>
</mask>
<g mask="url(#mask0_3_59)">
<path d="M7.00001 14.6667V9.99999H5.33334V5.99999C5.33334 5.63333 5.4639 5.31944 5.72501 5.05833C5.98612 4.79722 6.30001 4.66666 6.66668 4.66666H9.33334C9.70001 4.66666 10.0139 4.79722 10.275 5.05833C10.5361 5.31944 10.6667 5.63333 10.6667 5.99999V9.99999H9.00001V14.6667H7.00001ZM8.00001 3.99999C7.63334 3.99999 7.31945 3.86944 7.05834 3.60833C6.79723 3.34722 6.66668 3.03333 6.66668 2.66666C6.66668 2.29999 6.79723 1.98611 7.05834 1.72499C7.31945 1.46388 7.63334 1.33333 8.00001 1.33333C8.36668 1.33333 8.68057 1.46388 8.94168 1.72499C9.20279 1.98611 9.33334 2.29999 9.33334 2.66666C9.33334 3.03333 9.20279 3.34722 8.94168 3.60833C8.68057 3.86944 8.36668 3.99999 8.00001 3.99999Z" fill="#36139D"/>
</g>
</svg>
