<svg width="14" height="15" viewBox="0 0 14 15" fill="none" xmlns="http://www.w3.org/2000/svg">
<mask id="mask0_4_70" style="mask-type:alpha" maskUnits="userSpaceOnUse" x="0" y="0" width="14" height="15">
<rect y="0.5" width="14" height="14" fill="#D9D9D9"/>
</mask>
<g mask="url(#mask0_4_70)">
<path d="M5.83334 13.3333L4.84167 5.91042C4.79306 5.56042 4.88542 5.25174 5.11876 4.98438C5.35209 4.71702 5.64376 4.58334 5.99376 4.58334H8.00626C8.35626 4.58334 8.64792 4.71702 8.88126 4.98438C9.11459 5.25174 9.20695 5.56042 9.15834 5.91042L8.16667 13.3333H5.83334ZM7.00001 4.00001C6.67917 4.00001 6.40452 3.88577 6.17605 3.6573C5.94758 3.42882 5.83334 3.15417 5.83334 2.83334C5.83334 2.51251 5.94758 2.23785 6.17605 2.00938C6.40452 1.78091 6.67917 1.66667 7.00001 1.66667C7.32084 1.66667 7.59549 1.78091 7.82397 2.00938C8.05244 2.23785 8.16667 2.51251 8.16667 2.83334C8.16667 3.15417 8.05244 3.42882 7.82397 3.6573C7.59549 3.88577 7.32084 4.00001 7.00001 4.00001Z" fill="#1C1B1F"/>
</g>
</svg>
