<svg width="16" height="16" viewBox="0 0 16 16" fill="none" xmlns="http://www.w3.org/2000/svg">
<mask id="mask0_3_48" style="mask-type:alpha" maskUnits="userSpaceOnUse" x="0" y="0" width="16" height="16">
<rect width="16" height="16" fill="#D9D9D9"/>
</mask>
<g mask="url(#mask0_3_48)">
<path d="M6.66666 14.6667V10.6667H4.66666L6.69999 5.53333C6.8111 5.26666 6.98332 5.05555 7.21666 4.89999C7.44999 4.74444 7.7111 4.66666 7.99999 4.66666C8.28888 4.66666 8.54999 4.74444 8.78332 4.89999C9.01666 5.05555 9.18888 5.26666 9.29999 5.53333L11.3333 10.6667H9.33332V14.6667H6.66666ZM7.99999 3.99999C7.63332 3.99999 7.31943 3.86944 7.05832 3.60833C6.79721 3.34722 6.66666 3.03333 6.66666 2.66666C6.66666 2.29999 6.79721 1.98611 7.05832 1.72499C7.31943 1.46388 7.63332 1.33333 7.99999 1.33333C8.36666 1.33333 8.68055 1.46388 8.94166 1.72499C9.20277 1.98611 9.33332 2.29999 9.33332 2.66666C9.33332 3.03333 9.20277 3.34722 8.94166 3.60833C8.68055 3.86944 8.36666 3.99999 7.99999 3.99999Z" fill="#833C52"/>
</g>
</svg>
