<svg width="14" height="14" viewBox="0 0 14 14" fill="none" xmlns="http://www.w3.org/2000/svg">
<path d="M7 13.6779C6.07778 13.6779 5.21111 13.5029 4.4 13.1529C3.58889 12.8029 2.88334 12.3279 2.28334 11.7279C1.68334 11.1279 1.20834 10.4224 0.858336 9.61124C0.508336 8.80013 0.333336 7.93346 0.333336 7.01124C0.333336 6.08902 0.508336 5.22235 0.858336 4.41124C1.20834 3.60013 1.68334 2.89457 2.28334 2.29457C2.88334 1.69457 3.58889 1.21957 4.4 0.869574C5.21111 0.519574 6.07778 0.344574 7 0.344574C7.92222 0.344574 8.78889 0.519574 9.6 0.869574C10.4111 1.21957 11.1167 1.69457 11.7167 2.29457C12.3167 2.89457 12.7917 3.60013 13.1417 4.41124C13.4917 5.22235 13.6667 6.08902 13.6667 7.01124C13.6667 7.93346 13.4917 8.80013 13.1417 9.61124C12.7917 10.4224 12.3167 11.1279 11.7167 11.7279C11.1167 12.3279 10.4111 12.8029 9.6 13.1529C8.78889 13.5029 7.92222 13.6779 7 13.6779ZM7 12.3446C8.48889 12.3446 9.75 11.8279 10.7833 10.7946C11.8167 9.76124 12.3333 8.50013 12.3333 7.01124C12.3333 5.52235 11.8167 4.26124 10.7833 3.22791C9.75 2.19457 8.48889 1.67791 7 1.67791C5.51111 1.67791 4.25 2.19457 3.21667 3.22791C2.18334 4.26124 1.66667 5.52235 1.66667 7.01124C1.66667 8.50013 2.18334 9.76124 3.21667 10.7946C4.25 11.8279 5.51111 12.3446 7 12.3446Z" fill="#1C1B1F"/>
</svg>
